<?xml version="1.0" encoding="utf-8"?>
<!-- Generator: Adobe Illustrator 24.1.1, SVG Export Plug-In . SVG Version: 6.00 Build 0)  -->
<svg version="1.1" id="Calque_1" xmlns="http://www.w3.org/2000/svg" xmlns:xlink="http://www.w3.org/1999/xlink" x="0px" y="0px"
	 viewBox="0 0 414 167" style="enable-background:new 0 0 414 167;" xml:space="preserve">
<style type="text/css">
	.st0{fill:#FFFFFF;}
	.st1{fill:#00C8EF;}
	.st2{fill:#00B1EF;}
</style>
<g>
	<g>
		<g>
			<g>
				<g>
					<path class="st0" d="M194.7,62.3c8.2,0,15.2,6.8,15.2,15.1v3.1c0,8.3-7,15.1-15.2,15.1c-8.2,0-15.2-6.8-15.2-15.1v-3.1
						C179.5,69.1,186.5,62.3,194.7,62.3 M194.6,57c-11.1,0-20.4,9.2-20.4,20.5v3.1c0,11.3,9.2,20.5,20.4,20.5
						c11.1,0,20.4-9.2,20.4-20.5v-3.1C215,66.2,205.8,57,194.6,57L194.6,57z"/>
				</g>
				<g>
					<path class="st0" d="M219.3,99.7c-0.4,0-0.8-0.1-1.2-0.3c-8.2-4.3-8.2-13.5-8.2-13.9V60.5c0-1.5,1-2.7,2.5-2.7s2.5,1.2,2.5,2.7
						v24.9c0,0.2,0.2,6.5,5.5,9.2c1.3,0.7,1.9,2.3,1.2,3.6C221.2,99.2,220.3,99.7,219.3,99.7z"/>
				</g>
			</g>
			<g>
				<path class="st0" d="M94.8,124.3H93l-0.3-2.1h-2.2l-0.3,2.1h-1.7l1.8-11.4H93L94.8,124.3z M90.7,120.6h1.7l-0.8-5.8h0
					L90.7,120.6z"/>
				<path class="st0" d="M99.6,117.9h2.5v3.6c0,1.8-0.9,2.9-2.7,2.9c-1.8,0-2.7-1-2.7-2.9v-5.9c0-1.8,0.9-2.9,2.7-2.9
					c1.8,0,2.7,1,2.7,2.9v1.1h-1.7v-1.2c0-0.8-0.4-1.1-0.9-1.1c-0.6,0-0.9,0.3-0.9,1.1v6.2c0,0.8,0.4,1.1,0.9,1.1
					c0.6,0,0.9-0.3,0.9-1.1v-2.1h-0.8L99.6,117.9L99.6,117.9z"/>
				<path class="st0" d="M106.3,117.6h2.5v1.6h-2.5v3.4h3.1v1.6h-4.9v-11.4h4.9v1.6h-3.1V117.6z"/>
				<path class="st0" d="M113.4,116L113.4,116l0,8.3h-1.6v-11.4h2.3l1.8,6.8h0v-6.8h1.6v11.4h-1.8L113.4,116z"/>
				<path class="st0" d="M125.1,120v1.5c0,1.8-0.9,2.9-2.7,2.9c-1.8,0-2.7-1-2.7-2.9v-5.9c0-1.8,0.9-2.9,2.7-2.9
					c1.8,0,2.7,1,2.7,2.9v1.1h-1.7v-1.2c0-0.8-0.4-1.1-0.9-1.1s-0.9,0.3-0.9,1.1v6.2c0,0.8,0.4,1.1,0.9,1.1s0.9-0.3,0.9-1.1V120
					L125.1,120L125.1,120z"/>
				<path class="st0" d="M129.2,117.6h2.5v1.6h-2.5v3.4h3.1v1.6h-4.9v-11.4h4.9v1.6h-3.1V117.6z"/>
				<path class="st0" d="M142.4,118.2L142.4,118.2l-0.7,6.1h-2.5l-1.3-11.4h1.7l0.9,9h0l0.9-9h1.7l0.9,9.1h0l0.9-9.1h1.6l-1.3,11.4
					h-2.4L142.4,118.2z"/>
				<path class="st0" d="M150.7,117.6h2.5v1.6h-2.5v3.4h3.1v1.6h-4.9v-11.4h4.9v1.6h-3.1V117.6z"/>
				<path class="st0" d="M161.5,115.4v0.4c0,1.2-0.4,1.9-1.2,2.3v0c1,0.4,1.3,1.2,1.3,2.4v0.9c0,1.8-0.9,2.7-2.7,2.7h-2.8v-11.4h2.7
					C160.7,112.8,161.5,113.7,161.5,115.4z M157.9,114.4v3h0.7c0.7,0,1.1-0.3,1.1-1.2v-0.6c0-0.8-0.3-1.2-0.9-1.2L157.9,114.4
					L157.9,114.4z M157.9,119.1v3.5h1c0.6,0,0.9-0.3,0.9-1.1v-1c0-1.1-0.3-1.4-1.2-1.4H157.9z"/>
				<path class="st0" d="M169,118.2L169,118.2c-0.8-0.4-1.2-1.1-1.2-2.4v-0.2c0-1.8,0.9-2.8,2.7-2.8h2.1v1.6h-2
					c-0.6,0-0.9,0.3-0.9,1.1v0.7c0,0.9,0.4,1.2,1.1,1.2h0.8v-1.3h1.8v1.3h0.5v1.6h-0.5v3.8c0,0.6,0,1,0.2,1.4h-1.8
					c-0.1-0.2-0.1-0.4-0.2-0.9h0c-0.3,0.7-0.8,1-1.6,1c-1.3,0-2-0.9-2-2.6v-1.2C167.7,119.4,168.1,118.6,169,118.2z M170.5,122.7
					c0.5,0,0.9-0.3,0.9-1v-2.6h-0.7c-0.8,0-1.2,0.4-1.2,1.5v1.1C169.5,122.4,169.9,122.7,170.5,122.7z"/>
				<path class="st0" d="M183.3,120.9L183.3,120.9l1.2-8.1h2.5v11.4h-1.7V116h0l-1.2,8.2h-1.7l-1.3-8.1h0v8.1h-1.6v-11.4h2.5
					L183.3,120.9z"/>
				<path class="st0" d="M189.4,115.6c0-1.8,1-2.9,2.7-2.9c1.8,0,2.7,1,2.7,2.9v5.9c0,1.8-1,2.9-2.7,2.9c-1.8,0-2.7-1-2.7-2.9V115.6
					z M191.2,121.6c0,0.8,0.4,1.1,0.9,1.1s0.9-0.3,0.9-1.1v-6.2c0-0.8-0.4-1.1-0.9-1.1s-0.9,0.3-0.9,1.1V121.6z"/>
				<path class="st0" d="M202.6,115.4v0.4c0,1.2-0.4,1.9-1.2,2.3v0c1,0.4,1.3,1.2,1.3,2.4v0.9c0,1.8-0.9,2.7-2.7,2.7h-2.8v-11.4h2.7
					C201.8,112.8,202.6,113.7,202.6,115.4z M199,114.4v3h0.7c0.7,0,1.1-0.3,1.1-1.2v-0.6c0-0.8-0.3-1.2-0.9-1.2L199,114.4L199,114.4
					z M199,119.1v3.5h1c0.6,0,0.9-0.3,0.9-1.1v-1c0-1.1-0.3-1.4-1.2-1.4H199z"/>
				<path class="st0" d="M205.1,112.8h1.8v11.4h-1.8V112.8z"/>
				<path class="st0" d="M209.4,112.8h1.8v9.8h3v1.6h-4.8V112.8z"/>
				<path class="st0" d="M218,117.6h2.5v1.6H218v3.4h3.1v1.6h-4.9v-11.4h4.9v1.6H218V117.6z"/>
			</g>
			<g>
				<g>
					<path class="st0" d="M136.4,79.3c0,0,0.1-0.3,0.1-0.9c0-0.3,0.2-0.7,0.3-1.1c0.1-0.4,0.3-0.9,0.5-1.3c0.2-0.5,0.5-1,0.8-1.5
						c0.1-0.3,0.3-0.5,0.5-0.8c0.2-0.3,0.4-0.5,0.6-0.8c0.4-0.5,0.9-1,1.4-1.5c0.5-0.5,1.1-0.9,1.7-1.2c0.6-0.4,1.3-0.7,2-0.9
						c0.3-0.1,0.7-0.2,1-0.3c0.3-0.1,0.7-0.2,1-0.2c0.7-0.1,1.4-0.2,2-0.2c0.2,0,0.3,0,0.5,0c0.1,0,0.3,0,0.4,0c0.3,0,0.5,0,0.8,0.1
						c0.6,0.1,1.1,0.2,1.6,0.3c0.4,0.1,0.8,0.2,1.2,0.4c0.6,0.3,1,0.4,1,0.4l-1.3,2.2c0,0-0.3-0.2-0.7-0.5c-0.2-0.2-0.5-0.3-0.9-0.5
						c-0.3-0.2-0.7-0.3-1.2-0.5c-0.2-0.1-0.5-0.1-0.8-0.2c-0.1,0-0.3-0.1-0.4-0.1c0,0-0.2,0-0.4-0.1c-0.5-0.1-1.1-0.1-1.7-0.1
						c-0.3,0-0.6,0-0.9,0.1c-0.3,0-0.6,0.1-1,0.1c-0.6,0.1-1.3,0.3-1.9,0.6c-0.6,0.3-1.2,0.6-1.8,0.9c-0.6,0.4-1.1,0.8-1.5,1.3
						c-0.2,0.2-0.4,0.5-0.6,0.7c-0.2,0.2-0.4,0.5-0.6,0.7c-0.4,0.5-0.6,1-0.8,1.4c-0.2,0.5-0.4,0.9-0.5,1.3
						c-0.1,0.4-0.2,0.8-0.3,1.1C136.5,79,136.4,79.3,136.4,79.3z"/>
				</g>
				<g>
					<path class="st0" d="M157.1,72.3c0,0,0.3,0.3,0.8,0.9c0.2,0.4,0.6,0.8,0.9,1.3c0.1,0.3,0.3,0.5,0.4,0.8
						c0.1,0.3,0.3,0.6,0.4,0.9c0.2,0.3,0.2,0.7,0.4,1.1c0.1,0.4,0.2,0.8,0.3,1.2c0.1,0.4,0.1,0.8,0.2,1.3c0,0.4,0.1,0.9,0,1.3
						c0,0.2,0,0.5,0,0.7l0,0.1l0,0l0,0.1l0,0.1l0,0.3l-0.1,0.6c0,0.2-0.1,0.5-0.2,0.7c-0.1,0.5-0.3,1-0.5,1.4
						c-0.2,0.5-0.4,0.9-0.6,1.3c-0.2,0.4-0.5,0.8-0.8,1.2c-0.3,0.4-0.6,0.7-0.9,1.1c-0.6,0.7-1.4,1.3-2.1,1.8
						c-0.4,0.2-0.7,0.5-1.1,0.7c-0.4,0.2-0.7,0.4-1.1,0.5c-0.4,0.2-0.7,0.3-1.1,0.4c-0.4,0.1-0.7,0.2-1.1,0.3
						c-0.7,0.1-1.3,0.2-1.9,0.2c-0.6,0-1,0-1.4,0c-0.8-0.1-1.2-0.2-1.2-0.2l0.2-1.8c0,0,0.4,0,1.1,0c0.3,0,0.7-0.1,1.2-0.2
						c0.4-0.1,1-0.2,1.5-0.4c0.3-0.1,0.5-0.2,0.8-0.3c0.3-0.1,0.5-0.3,0.8-0.4c0.6-0.3,1.1-0.7,1.6-1.1c0.5-0.4,1-1,1.4-1.5
						c0.2-0.3,0.4-0.6,0.6-0.9c0.2-0.3,0.4-0.6,0.5-0.9c0.1-0.3,0.3-0.6,0.4-1l0.2-0.5c0.1-0.2,0.1-0.3,0.1-0.5
						c0-0.2,0.1-0.3,0.1-0.5l0.1-0.6l0-0.3l0-0.1l0,0l0,0c0,0.2,0,0,0,0.1l0,0l0-0.1l0-0.5c0-0.3,0-0.7,0-1c0-0.3,0-0.6-0.1-0.9
						c0-0.3-0.1-0.6-0.2-0.9c-0.1-0.3-0.1-0.5-0.2-0.8c-0.1-0.3-0.2-0.5-0.2-0.7c-0.1-0.2-0.2-0.4-0.3-0.6c-0.2-0.4-0.4-0.7-0.5-0.9
						c-0.4-0.6-0.7-0.9-0.7-0.9L157.1,72.3z"/>
				</g>
			</g>
			<g>
				<g>
					<path class="st1" d="M155.7,98.8c0,0-0.7,0.4-2,0.9c-0.3,0.1-0.7,0.3-1.1,0.4c-0.4,0.2-0.9,0.3-1.4,0.4c-0.5,0.1-1,0.2-1.6,0.3
						c-0.6,0.1-1.2,0.1-1.8,0.2c-0.6,0-1.3,0-2,0c-0.7,0-1.4-0.1-2.1-0.2c-0.7-0.1-1.4-0.3-2.2-0.4c-0.7-0.2-1.5-0.4-2.2-0.7
						c-0.7-0.3-1.5-0.6-2.2-1c-0.4-0.2-0.7-0.4-1.1-0.6c-0.4-0.2-0.7-0.5-1.1-0.7c-1.4-0.9-2.7-2.1-3.9-3.3c-0.5-0.7-1.1-1.3-1.6-2
						c-0.5-0.7-1-1.4-1.4-2.2c-0.2-0.4-0.4-0.8-0.6-1.1l-0.1-0.1l0,0c0,0.1-0.1-0.1,0-0.1l0,0l0-0.1l-0.1-0.3l-0.2-0.5
						c-0.3-0.7-0.6-1.4-0.8-2.3c-0.1-0.4-0.2-0.8-0.3-1.2c-0.1-0.4-0.2-0.8-0.2-1.2c-0.1-0.8-0.2-1.6-0.3-2.3c0-0.8,0-1.5,0-2.2
						c0-0.7,0.2-1.4,0.2-2.1c0-0.3,0.1-0.7,0.1-1c0.1-0.3,0.2-0.6,0.2-0.9c0.2-0.6,0.3-1.2,0.4-1.7c0.4-1,0.7-1.9,1-2.6
						c0.7-1.4,1.2-2.2,1.2-2.2l3.7,2.3c0,0-0.4,0.6-1,1.7c-0.3,0.6-0.5,1.3-0.9,2.1c-0.1,0.4-0.3,0.9-0.4,1.3
						c-0.1,0.2-0.1,0.5-0.2,0.7c-0.1,0.3-0.1,0.5-0.1,0.8c-0.1,0.5-0.2,1.1-0.2,1.7c0,0.6-0.1,1.2-0.1,1.8c0,0.6,0.1,1.3,0.1,1.9
						c0,0.3,0.1,0.6,0.1,1c0.1,0.3,0.1,0.6,0.2,0.9c0.1,0.6,0.4,1.4,0.6,2.1l0.2,0.6l0.1,0.3l0,0.1l0,0c0,0-0.1-0.2,0-0.1l0,0
						l0.1,0.1c0.1,0.3,0.3,0.7,0.4,1c0.3,0.7,0.7,1.3,1,1.9c0.4,0.6,0.8,1.2,1.3,1.8c1,1.1,2,2.2,3.1,3.2c0.3,0.2,0.6,0.5,0.9,0.7
						c0.3,0.2,0.6,0.4,0.9,0.6c0.6,0.4,1.3,0.7,1.9,1.1c0.6,0.3,1.3,0.6,1.9,0.8c0.7,0.2,1.3,0.4,1.9,0.6c0.6,0.1,1.3,0.3,1.9,0.4
						c0.6,0.1,1.2,0.1,1.8,0.2c0.6,0,1.2,0,1.7,0c0.5,0,1-0.1,1.5-0.1c0.5,0,0.9-0.1,1.3-0.2c0.4-0.1,0.8-0.1,1.1-0.2
						c0.7-0.2,1.2-0.3,1.6-0.4C155.5,98.8,155.7,98.8,155.7,98.8z"/>
				</g>
				<g>
					<path class="st1" d="M135.5,61c0,0,0.6-0.3,1.6-0.9c0.3-0.1,0.6-0.3,1-0.5c0.2-0.1,0.4-0.2,0.6-0.3l0.1-0.1l0.1,0l0.2-0.1
						c0.1,0,0.2-0.1,0.3-0.1c0.8-0.3,1.5-0.6,2.7-0.9c1.1-0.3,2.3-0.5,3.5-0.6c0.6,0,1.3-0.1,1.9-0.1c0.7,0,1.3,0.1,2,0.1
						c2.7,0.2,5.5,1,8.1,2.3c1.3,0.7,2.5,1.4,3.6,2.3c0.6,0.4,1.1,0.9,1.6,1.4c0.5,0.5,0.9,1,1.4,1.5c0.5,0.5,0.8,1,1.2,1.5
						c0.2,0.3,0.4,0.5,0.6,0.8c0.2,0.3,0.3,0.5,0.5,0.8c0.6,1,1.1,2.1,1.5,3.1l0.1,0.2l0,0.1l0,0l0,0.1L168,72
						c0.1,0.2,0.1,0.4,0.2,0.7c0.1,0.4,0.3,0.9,0.4,1.3c0.2,0.9,0.3,1.6,0.4,2.2c0.1,0.6,0.1,1.1,0.1,1.4c0,0.3,0,0.5,0,0.5
						l-2.4,0.2c0,0,0-0.2-0.1-0.4c-0.1-0.3-0.1-0.7-0.2-1.2c-0.1-0.5-0.3-1.2-0.5-1.8c-0.1-0.3-0.2-0.7-0.4-1.1
						c-0.1-0.2-0.2-0.4-0.3-0.6l-0.1-0.3l0-0.1l0,0l0,0c0,0.1,0,0,0,0l0,0l-0.1-0.2c-0.4-0.8-0.9-1.7-1.5-2.5
						c-0.1-0.2-0.3-0.4-0.4-0.6c-0.2-0.2-0.3-0.4-0.5-0.6c-0.3-0.4-0.7-0.8-1.1-1.2c-0.8-0.8-1.7-1.5-2.6-2.2c-1-0.7-2-1.3-3.1-1.8
						c-2.2-1-4.5-1.5-6.7-1.7c-0.5,0-1.1-0.1-1.6,0c-0.5,0-1,0.1-1.5,0.1c-1,0.2-1.9,0.3-2.7,0.5c-0.7,0.1-1.7,0.5-2.4,0.8
						c-0.1,0-0.2,0.1-0.3,0.1l0,0l0,0l0,0c0,0-0.1,0,0.1,0l-0.1,0l-0.1,0.1c-0.1,0.1-0.3,0.1-0.4,0.2c-0.3,0.1-0.5,0.2-0.7,0.3
						c-1,0.6-1.5,0.9-1.5,0.9L135.5,61z"/>
				</g>
				<g>
					<path class="st1" d="M168.7,83.7c0,0-0.4,1.3-0.8,2.6c-0.6,1.3-1.2,2.6-1.2,2.6l-1-0.5c0,0,0.4-1.2,0.7-2.4
						c0.2-1.3,0.5-2.6,0.5-2.6L168.7,83.7z"/>
				</g>
			</g>
			<g>
				<path class="st0" d="M82.9,101.4h-1c-10.4,0-19-8.2-19-18.4V63.2c0-1.5,1.3-2.7,2.7-2.7c1.5,0,2.7,1.2,2.7,2.7V83
					c0,7.2,6,13.1,13.5,13.1h1c7.3,0,13.2-5.8,13.2-13.1V63.2c0-1.5,1-2.7,2.5-2.7c1.5,0,2.5,1.2,2.5,2.7V83
					C101.2,93.4,93.2,101.4,82.9,101.4z"/>
			</g>
			<g>
				<path class="st0" d="M122,102.5c-0.2,0-0.4,0-0.6-0.1c-7.2-1.7-12.2-8.1-12.2-15.6V44.5c0-1.5,1.2-2.7,2.6-2.7s2.6,1.2,2.6,2.7
					v42.3c0,5,3.3,9.3,8.1,10.4c1.4,0.3,2.3,1.8,2,3.2C124.3,101.6,123.2,102.5,122,102.5z"/>
			</g>
			<g>
				<path class="st0" d="M43,118.5c-1.2,0-2.3-0.8-2.6-2.1c-0.3-1.4,0.4-2.9,1.8-3.2c4.7-1.1,7.9-5.4,7.9-10.4V44.5
					c0-1.5,1.4-2.7,2.8-2.7c1.5,0,2.8,1.2,2.8,2.7v58.3c0,7.5-5,13.9-12.2,15.6C43.5,118.5,43.2,118.5,43,118.5z"/>
			</g>
		</g>
	</g>
	<g>
		<path class="st1" d="M274.1,82.4c-0.3,0-0.7,0.1-0.9,0.2s-0.5,0.3-0.7,0.5c-0.2,0.2-0.3,0.6-0.3,1c0,0.4,0.1,0.8,0.2,1.1
			c0.2,0.3,0.4,0.5,0.6,0.6c0.3,0.1,0.6,0.2,0.9,0.3s0.7,0.1,1,0.1h5.2v-3.8h-5.1C274.8,82.4,274.4,82.4,274.1,82.4z"/>
		<path class="st1" d="M279.1,98.8c0.5,0.3,0.8,0.7,1.1,1.2v-1.2L279.1,98.8L279.1,98.8z"/>
		<path class="st1" d="M279.9,105.1c-0.3,0.4-0.6,0.7-1.1,0.9c-0.4,0.2-0.9,0.3-1.5,0.3c-0.6,0-1.2-0.1-1.6-0.4s-0.8-0.6-1.1-1
			c-0.3-0.4-0.5-0.9-0.7-1.4c-0.2-0.5-0.3-1.1-0.4-1.6c-0.1-0.6-0.1-1.1-0.1-1.7c0-0.6,0-1.1,0-1.5c-0.6,0-1.1,0.2-1.4,0.6
			s-0.5,0.9-0.5,1.5c0,0.6,0.1,1.1,0.4,1.5c0.2,0.5,0.6,0.9,1,1.2l-1.9,1.8c-0.6-0.6-1-1.4-1.3-2.2c-0.3-0.8-0.4-1.7-0.4-2.6
			c0-1,0.1-1.8,0.4-2.5c0.3-0.6,0.6-1.2,1.1-1.5c0.5-0.4,1.1-0.7,1.8-0.8c0.7-0.2,1.5-0.2,2.4-0.2h5.3v-6h-10.8v-3.3h1.5v0
			c-0.2-0.1-0.4-0.3-0.6-0.5c-0.2-0.2-0.4-0.4-0.6-0.7c-0.2-0.3-0.3-0.6-0.4-0.9c-0.1-0.3-0.2-0.7-0.2-1.1c0-0.9,0.1-1.6,0.4-2.1
			c0.3-0.5,0.6-0.9,1.1-1.2c0.5-0.3,1-0.5,1.7-0.6c0.6-0.1,1.3-0.2,2.1-0.2h5.8v-6.9c-0.2,0.5-0.5,1-0.9,1.4l-2.3-2.1
			c0.4-0.3,0.7-0.7,0.9-1.1s0.3-0.8,0.3-1.4c0-0.4-0.1-0.8-0.2-1.1c-0.1-0.3-0.3-0.5-0.6-0.5c-0.3,0-0.5,0.1-0.6,0.4
			c-0.1,0.3-0.3,0.6-0.4,1.1s-0.2,0.9-0.3,1.4c-0.1,0.5-0.3,1-0.5,1.4s-0.5,0.8-1,1.1c-0.4,0.3-1,0.4-1.7,0.4
			c-0.7,0-1.2-0.1-1.7-0.4c-0.5-0.3-0.9-0.6-1.2-1s-0.5-0.9-0.7-1.5s-0.2-1.1-0.2-1.7c0-0.7,0.1-1.5,0.3-2.2
			c0.2-0.7,0.6-1.4,1.1-1.9l2.1,2.1c-0.6,0.5-0.9,1.2-0.9,2c0,0.3,0.1,0.6,0.2,0.8c0.1,0.3,0.4,0.4,0.7,0.4c0.3,0,0.5-0.1,0.6-0.4
			s0.2-0.6,0.3-1.1s0.2-0.9,0.3-1.4c0.1-0.5,0.3-1,0.5-1.4c0.2-0.4,0.6-0.8,1-1.1c0.4-0.3,1-0.4,1.7-0.4c0.7,0,1.3,0.2,1.8,0.5
			s0.8,0.7,1.1,1.2c0.1,0.1,0.1,0.3,0.2,0.4V36H254l-10.1,16.4h18.9v75.5h17.4v-23.3C280.1,104.8,280,104.9,279.9,105.1z"/>
		<path class="st1" d="M277.3,99c-0.3-0.1-0.6-0.2-0.9-0.2h-0.7v0.8c0,0.3,0,0.6,0,1c0,0.4,0.1,0.8,0.2,1.1c0.1,0.4,0.3,0.7,0.5,0.9
			c0.2,0.3,0.5,0.4,0.9,0.4c0.4,0,0.7-0.2,0.9-0.5c0.2-0.3,0.3-0.7,0.3-1.1c0-0.3,0-0.7-0.1-1c-0.1-0.3-0.2-0.6-0.4-0.8
			C277.8,99.3,277.6,99.1,277.3,99z"/>
	</g>
	<g>
		<g>
			<path class="st0" d="M307.8,85.5l3.7-3.4c0.2-0.2,0.4-0.4,0.6-0.6c0.2-0.2,0.3-0.5,0.3-0.8c0-0.3-0.1-0.6-0.4-0.8
				c-0.2-0.2-0.5-0.3-0.8-0.3c-0.4,0-0.7,0.1-0.9,0.4c-0.2,0.2-0.3,0.5-0.4,0.9l-2-0.1c0-0.5,0.1-0.9,0.3-1.3
				c0.2-0.4,0.4-0.7,0.7-0.9s0.7-0.4,1.1-0.6c0.4-0.1,0.8-0.2,1.3-0.2c0.4,0,0.8,0.1,1.2,0.2c0.4,0.1,0.7,0.3,1,0.5
				c0.3,0.2,0.5,0.5,0.7,0.9c0.2,0.4,0.2,0.8,0.2,1.3c0,0.3,0,0.6-0.1,0.8c-0.1,0.2-0.2,0.5-0.3,0.7c-0.1,0.2-0.2,0.4-0.4,0.6
				c-0.2,0.2-0.3,0.3-0.5,0.5l-2.9,2.5h4.3v1.8h-6.7V85.5z"/>
			<path class="st0" d="M318.7,82.9c0-0.6,0.1-1.2,0.2-1.7c0.1-0.6,0.3-1.1,0.6-1.6c0.3-0.5,0.6-0.9,1.1-1.2
				c0.5-0.3,1.1-0.5,1.8-0.5s1.3,0.2,1.8,0.5c0.5,0.3,0.8,0.7,1.1,1.2c0.3,0.5,0.5,1,0.6,1.6s0.2,1.2,0.2,1.7s-0.1,1.2-0.2,1.7
				c-0.1,0.6-0.3,1.1-0.6,1.6c-0.3,0.5-0.6,0.9-1.1,1.2c-0.5,0.3-1.1,0.5-1.8,0.5s-1.3-0.2-1.8-0.5c-0.5-0.3-0.8-0.7-1.1-1.2
				s-0.5-1-0.6-1.6C318.8,84,318.7,83.4,318.7,82.9z M320.8,82.9c0,0.3,0,0.6,0,0.9s0.1,0.7,0.2,1s0.3,0.6,0.5,0.8s0.5,0.3,0.9,0.3
				c0.4,0,0.6-0.1,0.9-0.3c0.2-0.2,0.4-0.5,0.5-0.8s0.2-0.7,0.2-1c0-0.4,0-0.7,0-0.9c0-0.3,0-0.6,0-0.9c0-0.4-0.1-0.7-0.2-1
				s-0.3-0.6-0.5-0.8c-0.2-0.2-0.5-0.3-0.9-0.3c-0.4,0-0.7,0.1-0.9,0.3s-0.4,0.5-0.5,0.8s-0.2,0.7-0.2,1S320.8,82.6,320.8,82.9z"/>
			<path class="st0" d="M333.3,80.3l-1.9,1.7l-1.2-1.3l3.1-2.7h1.9v9.6h-2V80.3z"/>
			<path class="st0" d="M341.3,85.5l3.7-3.4c0.2-0.2,0.4-0.4,0.6-0.6c0.2-0.2,0.3-0.5,0.3-0.8c0-0.3-0.1-0.6-0.4-0.8
				c-0.2-0.2-0.5-0.3-0.8-0.3c-0.4,0-0.7,0.1-0.9,0.4c-0.2,0.2-0.3,0.5-0.4,0.9l-2-0.1c0-0.5,0.1-0.9,0.3-1.3
				c0.2-0.4,0.4-0.7,0.7-0.9s0.7-0.4,1.1-0.6c0.4-0.1,0.8-0.2,1.3-0.2c0.4,0,0.8,0.1,1.2,0.2c0.4,0.1,0.7,0.3,1,0.5
				c0.3,0.2,0.5,0.5,0.7,0.9c0.2,0.4,0.2,0.8,0.2,1.3c0,0.3,0,0.6-0.1,0.8c-0.1,0.2-0.2,0.5-0.3,0.7c-0.1,0.2-0.2,0.4-0.4,0.6
				c-0.2,0.2-0.3,0.3-0.5,0.5l-2.9,2.5h4.3v1.8h-6.7V85.5z"/>
		</g>
		<g>
			<path class="st0" d="M332.8,102.1l3.7-3.4c0.2-0.2,0.4-0.4,0.6-0.6c0.2-0.2,0.3-0.5,0.3-0.8c0-0.3-0.1-0.6-0.4-0.8
				c-0.2-0.2-0.5-0.3-0.8-0.3c-0.4,0-0.7,0.1-0.9,0.4c-0.2,0.2-0.3,0.5-0.4,0.9l-2-0.1c0-0.5,0.1-0.9,0.3-1.3
				c0.2-0.4,0.4-0.7,0.7-0.9s0.7-0.4,1.1-0.6c0.4-0.1,0.8-0.2,1.3-0.2c0.4,0,0.8,0.1,1.2,0.2c0.4,0.1,0.7,0.3,1,0.5
				c0.3,0.2,0.5,0.5,0.7,0.9c0.2,0.4,0.2,0.8,0.2,1.3c0,0.3,0,0.6-0.1,0.8c-0.1,0.2-0.2,0.5-0.3,0.7c-0.1,0.2-0.2,0.4-0.4,0.6
				c-0.2,0.2-0.3,0.3-0.5,0.5l-2.9,2.5h4.3v1.8h-6.7V102.1z"/>
			<path class="st0" d="M343.7,99.4c0-0.6,0.1-1.2,0.2-1.7c0.1-0.6,0.3-1.1,0.6-1.6c0.3-0.5,0.6-0.9,1.1-1.2
				c0.5-0.3,1.1-0.5,1.8-0.5s1.3,0.2,1.8,0.5c0.5,0.3,0.8,0.7,1.1,1.2c0.3,0.5,0.5,1,0.6,1.6s0.2,1.2,0.2,1.7s-0.1,1.2-0.2,1.7
				c-0.1,0.6-0.3,1.1-0.6,1.6c-0.3,0.5-0.6,0.9-1.1,1.2c-0.5,0.3-1.1,0.5-1.8,0.5s-1.3-0.2-1.8-0.5c-0.5-0.3-0.8-0.7-1.1-1.2
				s-0.5-1-0.6-1.6C343.7,100.6,343.7,100,343.7,99.4z M345.7,99.4c0,0.3,0,0.6,0,0.9s0.1,0.7,0.2,1s0.3,0.6,0.5,0.8
				s0.5,0.3,0.9,0.3c0.4,0,0.6-0.1,0.9-0.3c0.2-0.2,0.4-0.5,0.5-0.8s0.2-0.7,0.2-1c0-0.4,0-0.7,0-0.9c0-0.3,0-0.6,0-0.9
				c0-0.4-0.1-0.7-0.2-1s-0.3-0.6-0.5-0.8c-0.2-0.2-0.5-0.3-0.9-0.3c-0.4,0-0.7,0.1-0.9,0.3s-0.4,0.5-0.5,0.8s-0.2,0.7-0.2,1
				S345.7,99.2,345.7,99.4z"/>
			<path class="st0" d="M355.1,102.1l3.7-3.4c0.2-0.2,0.4-0.4,0.6-0.6c0.2-0.2,0.3-0.5,0.3-0.8c0-0.3-0.1-0.6-0.4-0.8
				c-0.2-0.2-0.5-0.3-0.8-0.3c-0.4,0-0.7,0.1-0.9,0.4c-0.2,0.2-0.3,0.5-0.4,0.9l-2-0.1c0-0.5,0.1-0.9,0.3-1.3
				c0.2-0.4,0.4-0.7,0.7-0.9s0.7-0.4,1.1-0.6c0.4-0.1,0.8-0.2,1.3-0.2c0.4,0,0.8,0.1,1.2,0.2c0.4,0.1,0.7,0.3,1,0.5
				c0.3,0.2,0.5,0.5,0.7,0.9c0.2,0.4,0.2,0.8,0.2,1.3c0,0.3,0,0.6-0.1,0.8c-0.1,0.2-0.2,0.5-0.3,0.7c-0.1,0.2-0.2,0.4-0.4,0.6
				c-0.2,0.2-0.3,0.3-0.5,0.5l-2.9,2.5h4.3v1.8h-6.7V102.1z"/>
			<path class="st0" d="M366.2,102.1l3.7-3.4c0.2-0.2,0.4-0.4,0.6-0.6c0.2-0.2,0.3-0.5,0.3-0.8c0-0.3-0.1-0.6-0.4-0.8
				c-0.2-0.2-0.5-0.3-0.8-0.3c-0.4,0-0.7,0.1-0.9,0.4c-0.2,0.2-0.3,0.5-0.4,0.9l-2-0.1c0-0.5,0.1-0.9,0.3-1.3
				c0.2-0.4,0.4-0.7,0.7-0.9s0.7-0.4,1.1-0.6c0.4-0.1,0.8-0.2,1.3-0.2c0.4,0,0.8,0.1,1.2,0.2c0.4,0.1,0.7,0.3,1,0.5
				c0.3,0.2,0.5,0.5,0.7,0.9c0.2,0.4,0.2,0.8,0.2,1.3c0,0.3,0,0.6-0.1,0.8c-0.1,0.2-0.2,0.5-0.3,0.7c-0.1,0.2-0.2,0.4-0.4,0.6
				c-0.2,0.2-0.3,0.3-0.5,0.5l-2.9,2.5h4.3v1.8h-6.7V102.1z"/>
		</g>
	</g>
	<g>
		<g>
			<g>
				<path class="st2" d="M352.9,89.8c0,0-0.1,0-0.1-0.1c-0.1-0.1-0.1-0.2,0-0.2L374,68.3c0.1-0.1,0.2-0.1,0.2,0
					c0.1,0.1,0.1,0.2,0,0.2l-21.2,21.2C353,89.8,353,89.8,352.9,89.8z"/>
			</g>
			<g>
				<path class="st2" d="M313.1,129.6c0,0-0.1,0-0.1,0c-0.1-0.1-0.1-0.2,0-0.2l20.9-20.9c0.1-0.1,0.2-0.1,0.2,0
					c0.1,0.1,0.1,0.2,0,0.2l-20.9,20.9C313.2,129.5,313.1,129.6,313.1,129.6z"/>
			</g>
		</g>
	</g>
	<path class="st1" d="M332.8,109.8c-0.8,0.2-1.6,0.3-2.4,0.4c-1,0.1-2,0.2-3,0.2c-13.9,0-25.6-10.5-27.1-24.4
		c-0.8-7.3,1.3-14.4,5.9-20.1c4.6-5.7,11.1-9.3,18.4-10.1c1-0.1,2-0.2,3-0.2c0,0,0,0,0,0c13.9,0,25.6,10.5,27.1,24.4
		c0.3,2.9,0.2,5.7-0.4,8.3L371,71.6C365.8,52,348,38,327.5,38c0,0,0,0,0,0c0,0,0,0,0,0c-1.6,0-3.3,0.1-4.9,0.3
		c-5.8,0.6-11.2,2.4-16.1,4.9c-5.5,2.9-10.2,6.9-14,11.6c-7.2,9-11,20.7-9.6,33c2.1,19.1,15.8,34,33.4,38.6L332.8,109.8z"/>
</g>
</svg>
